<svg width="20" height="20" viewBox="0 0 20 20" fill="none" xmlns="http://www.w3.org/2000/svg">
<path d="M17.3111 17.275L16.2448 5.56875C16.2161 5.24625 15.9461 5 15.6223 5H13.7473V3.75C13.7473 2.745 13.3573 1.8025 12.6511 1.09625C11.9561 0.4 10.9886 0 9.99731 0C7.92981 0 6.24731 1.6825 6.24731 3.75V5H4.37231C4.04856 5 3.77856 5.24625 3.74981 5.56875L2.68606 17.2738C2.62231 17.9725 2.85731 18.6688 3.32981 19.1863C3.80231 19.7038 4.47481 20 5.17606 20H14.8198C15.5198 20 16.1923 19.7038 16.6648 19.1875C17.1386 18.67 17.3723 17.9725 17.3111 17.275ZM12.4973 5H7.49731V3.75C7.49731 2.37125 8.61856 1.25 9.99731 1.25C10.6598 1.25 11.3048 1.515 11.7673 1.97875C12.2386 2.45 12.4973 3.07875 12.4973 3.75V5Z" fill="#1C1C1C"/>
</svg>
