<svg width="46" height="46" viewBox="0 0 46 46" fill="none" xmlns="http://www.w3.org/2000/svg">
<g clip-path="url(#clip0)">
<path d="M22.9994 40.6094C22.6272 40.6094 22.3255 40.9111 22.3255 41.2832C22.3255 41.6553 22.6272 41.957 22.9994 41.957C23.3715 41.957 23.6732 41.6553 23.6732 41.2832C23.6732 40.9111 23.3715 40.6094 22.9994 40.6094ZM22.9994 36.5664C22.6272 36.5664 22.3255 36.8681 22.3255 37.2402C22.3255 37.6124 22.6272 37.9141 22.9994 37.9141C23.3715 37.9141 23.6732 37.6124 23.6732 37.2402C23.6732 36.8681 23.3715 36.5664 22.9994 36.5664ZM22.9994 44.6523C22.6272 44.6523 22.3255 44.954 22.3255 45.3262C22.3255 45.6983 22.6272 46 22.9994 46C23.3715 46 23.6732 45.6983 23.6732 45.3262C23.6732 44.954 23.3715 44.6523 22.9994 44.6523ZM36.2371 30.8283L33.2378 29.819C34.8958 28.638 35.9351 26.6997 35.9351 24.6074C35.9394 24.5988 35.9351 12.9358 35.9351 12.9358C35.9351 9.48166 34.5897 6.23336 32.1466 3.78943C29.7031 1.34577 26.4546 0 22.9994 0C20.78 0 18.5905 0.571676 16.6672 1.6533C16.3428 1.83569 16.2277 2.24654 16.4101 2.57088C16.5925 2.8953 17.0035 3.01021 17.3277 2.82792C19.0497 1.85959 21.0109 1.34766 22.9994 1.34766C26.0946 1.34766 29.0047 2.55318 31.1937 4.74213C33.3822 6.93154 34.5874 9.84139 34.5874 12.9357V12.9388C34.1961 12.7141 33.7432 12.585 33.2606 12.585H32.6131C30.8103 12.2754 29.0421 11.7644 27.3568 11.065C26.0742 10.5327 24.8278 9.88587 23.6523 9.14268C23.2406 8.88231 22.7035 8.90648 22.3158 9.20279C21.3988 9.9033 20.4085 10.5091 19.3724 11.0033C17.5107 11.8911 15.5075 12.4231 13.418 12.585H12.7382C12.2556 12.585 11.8028 12.7141 11.4114 12.9388V12.9357C11.4114 9.80034 12.6437 6.86361 14.8814 4.66657C15.1469 4.40585 15.1508 3.97927 14.8901 3.71369C14.6294 3.4482 14.2028 3.44416 13.9372 3.70498C11.4393 6.15744 10.0638 9.43575 10.0638 12.9357V24.6073C10.0638 26.6996 11.103 28.638 12.761 29.8189L9.76161 30.8283C7.2909 31.6599 5.63086 33.9698 5.63086 36.5763V45.3262C5.63086 45.6983 5.93255 46 6.30469 46C6.67682 46 6.97852 45.6983 6.97852 45.3262V36.5763C6.97852 34.5491 8.26975 32.7524 10.1915 32.1056L11.3625 31.7115C11.1892 32.4237 11.1126 33.1578 11.1395 33.8846C11.1651 34.5746 11.2815 35.2528 11.483 35.9105C10.1741 36.3035 9.21742 37.5189 9.21742 38.9542V41.6965C9.21742 42.3749 9.76933 42.9267 10.4477 42.9267H11.2028C11.5749 42.9267 11.8766 42.625 11.8766 42.2529C11.8766 41.8808 11.5749 41.5791 11.2028 41.5791H10.565V38.9541C10.565 37.9454 11.3853 37.1248 12.3938 37.1242C12.3943 37.1242 12.3947 37.1242 12.3953 37.1242C12.3958 37.1242 12.3964 37.1242 12.3969 37.1242C13.4051 37.1252 14.225 37.9457 14.225 38.9541V41.5791H13.5873C13.2152 41.5791 12.9135 41.8808 12.9135 42.2529C12.9135 42.625 13.2152 42.9267 13.5873 42.9267H14.3425C15.0208 42.9267 15.5727 42.3748 15.5727 41.6965V38.9542C15.5727 37.3632 14.3975 36.0418 12.8696 35.8121C12.6409 35.1743 12.5112 34.5111 12.4861 33.8347C12.453 32.9377 12.6096 32.0264 12.9393 31.1809L17.5358 29.6341L22.3587 34.4569C22.7527 34.8546 23.4245 34.8565 23.8199 34.4569L25.1509 33.1258C25.4141 32.8627 25.4141 32.436 25.1509 32.173C24.8878 31.9098 24.4611 31.9098 24.1981 32.173L23.0892 33.2815L18.8179 29.0103C19.4513 28.4597 19.7398 27.6205 19.6751 26.7737C20.7072 27.1336 21.8132 27.3312 22.9633 27.3352C24.1225 27.3393 25.2576 27.1502 26.3236 26.7848C26.2135 27.6441 26.6116 28.5793 27.2802 29.0905L26.4169 29.9538C26.1538 30.217 26.1538 30.6436 26.4169 30.9067C26.6801 31.1699 27.1067 31.1699 27.3698 30.9067L28.5973 29.6792L32.7008 31.0601C33.0111 31.8493 33.1713 32.7029 33.1633 33.5476C33.156 34.3134 33.0098 35.0868 32.74 35.8078C30.9884 36.037 29.6311 37.5382 29.6311 39.3515C29.6311 41.3228 31.2349 42.9266 33.2062 42.9266C35.1776 42.9266 36.7814 41.3229 36.7814 39.3516C36.7814 37.7012 35.6571 36.3091 34.1344 35.8993C34.3743 35.1432 34.5035 34.3484 34.511 33.5604C34.5172 32.9007 34.4384 32.2364 34.2807 31.5917L35.8073 32.1054C37.7292 32.7523 39.0203 34.549 39.0203 36.5762V45.3261C39.0203 45.6982 39.322 45.9999 39.6941 45.9999C40.0663 45.9999 40.368 45.6982 40.368 45.3261V36.5762C40.368 33.9698 38.7079 31.6599 36.2371 30.8283ZM33.226 13.9326H33.2606C33.9906 13.9326 34.5845 14.5252 34.5874 15.2545V15.2648C34.5842 16.0039 33.9684 16.6079 33.226 16.5867V13.9326ZM11.4113 15.2546C11.4135 14.5151 12.0311 13.9119 12.7727 13.9327V16.5869C12.0303 16.6073 11.4145 16.0058 11.4113 15.265V15.2546ZM18.3275 27.1391C18.3275 27.622 18.0204 28.0495 17.5627 28.203L14.4713 29.2434C12.6319 28.456 11.4114 26.622 11.4114 24.6074V17.5808C11.8342 17.8252 12.3015 17.9429 12.8148 17.9346C13.1347 21.531 15.2912 24.6071 18.3275 26.1912V27.1391ZM22.9679 25.9876C18.0894 25.9707 14.1204 21.9411 14.1204 17.005V13.8729C16.1601 13.6489 18.1192 13.0938 19.9525 12.2196C21.0361 11.703 22.0731 11.0733 23.0366 10.3475C24.2459 11.1039 25.5251 11.7639 26.8402 12.3097C28.4598 12.982 30.1521 13.4897 31.8783 13.8217V17.1087C31.8783 19.4861 30.9508 21.7196 29.2668 23.3979C27.5541 25.1048 25.4147 25.9961 22.9679 25.9876ZM31.5275 29.2433L28.4354 28.2028C27.9783 28.0495 27.6712 27.622 27.6712 27.1391V26.2107C28.599 25.7333 29.4577 25.1103 30.2181 24.3525C31.9615 22.6152 33.0003 20.3611 33.1929 17.9344C33.6883 17.9415 34.1816 17.8165 34.5875 17.5806V24.6072C34.5874 26.622 33.3669 28.456 31.5275 29.2433ZM35.4337 39.3516C35.4337 40.5798 34.4345 41.5791 33.2063 41.5791C31.9781 41.5791 30.9788 40.5798 30.9788 39.3516C30.9788 38.1242 31.9767 37.1256 33.2037 37.1242C33.2044 37.1242 33.2052 37.1242 33.2059 37.1242C33.2065 37.1242 33.2071 37.1242 33.2078 37.1242C34.4353 37.1249 35.4337 38.1238 35.4337 39.3516ZM27.3565 14.4823C26.9844 14.4823 26.6827 14.784 26.6827 15.1561V16.6975C26.6827 17.0697 26.9844 17.3714 27.3565 17.3714C27.7286 17.3714 28.0303 17.0697 28.0303 16.6975V15.1561C28.0303 14.784 27.7286 14.4823 27.3565 14.4823ZM23.9561 20.8844C23.8045 20.9921 23.4862 21.1751 23.0587 21.1904C22.5764 21.2072 22.214 21.0057 22.042 20.8838C21.7384 20.6686 21.3178 20.7404 21.1026 21.0441C20.8874 21.3477 20.9592 21.7683 21.2629 21.9835C21.5611 22.1948 22.1739 22.5391 22.9999 22.5391C23.7236 22.5391 24.3956 22.2252 24.7365 21.9831C25.0399 21.7675 25.1111 21.3469 24.8956 21.0435C24.6802 20.7401 24.2595 20.6688 23.9561 20.8844ZM18.6422 14.4823C18.2701 14.4823 17.9684 14.784 17.9684 15.1561V16.6975C17.9684 17.0697 18.2701 17.3714 18.6422 17.3714C19.0143 17.3714 19.316 17.0697 19.316 16.6975V15.1561C19.316 14.784 19.0144 14.4823 18.6422 14.4823Z" fill="#636363"/>
</g>
<defs>
<clipPath id="clip0">
<rect width="46" height="46" fill="white"/>
</clipPath>
</defs>
</svg>
