<svg width="46" height="46" viewBox="0 0 46 46" fill="none" xmlns="http://www.w3.org/2000/svg">
<path d="M18.6875 17.9688H24.4375V19.4062H18.6875V17.9688Z" fill="#636363"/>
<path d="M10.0625 17.9688H16.5312V19.4062H10.0625V17.9688Z" fill="#636363"/>
<path d="M22.2812 20.8438H34.5V22.2812H22.2812V20.8438Z" fill="#636363"/>
<path d="M14.375 20.8438H20.125V22.2812H14.375V20.8438Z" fill="#636363"/>
<path d="M10.0625 20.8438H12.9375V22.2812H10.0625V20.8438Z" fill="#636363"/>
<path d="M17.25 25.1562H27.3125V26.5938H17.25V25.1562Z" fill="#636363"/>
<path d="M30.9062 30.1875H34.5V31.625H30.9062V30.1875Z" fill="#636363"/>
<path d="M20.125 30.1875H28.75V31.625H20.125V30.1875Z" fill="#636363"/>
<path d="M10.0625 30.1875H17.9688V31.625H10.0625V30.1875Z" fill="#636363"/>
<path d="M25.875 33.0625H34.5V34.5H25.875V33.0625Z" fill="#636363"/>
<path d="M15.0938 33.0625H23.7188V34.5H15.0938V33.0625Z" fill="#636363"/>
<path d="M10.0625 33.0625H12.9375V34.5H10.0625V33.0625Z" fill="#636363"/>
<path d="M31.625 35.9375H34.5V37.375H31.625V35.9375Z" fill="#636363"/>
<path d="M18.6875 35.9375H29.4688V37.375H18.6875V35.9375Z" fill="#636363"/>
<path d="M10.0625 35.9375H16.5312V37.375H10.0625V35.9375Z" fill="#636363"/>
<path d="M32.3438 38.8125H34.5V40.25H32.3438V38.8125Z" fill="#636363"/>
<path d="M23 38.8125H30.1875V40.25H23V38.8125Z" fill="#636363"/>
<path d="M10.0625 38.8125H20.8438V40.25H10.0625V38.8125Z" fill="#636363"/>
<path d="M9.34375 44.5625H36.6563C37.609 44.5614 38.5225 44.1825 39.1962 43.5087C39.8699 42.835 40.2489 41.9216 40.25 40.9688V14.1284C40.2513 13.6563 40.1589 13.1886 39.9783 12.7524C39.7976 12.3162 39.5322 11.9201 39.1974 11.5872L30.1004 2.49011L30.1003 2.49006C29.7673 2.15533 29.3713 1.88994 28.9351 1.70927C28.4989 1.52861 28.0313 1.43624 27.5591 1.43751H9.34375C8.39096 1.4386 7.4775 1.81757 6.80378 2.49129C6.13006 3.16502 5.75108 4.07847 5.75 5.03126V40.9688C5.75108 41.9216 6.13006 42.835 6.80378 43.5087C7.4775 44.1825 8.39096 44.5614 9.34375 44.5625ZM7.1875 5.03126C7.18815 4.45959 7.41554 3.91152 7.81977 3.50729C8.22401 3.10305 8.77208 2.87567 9.34375 2.87501H27.5591C27.7179 2.87511 27.8763 2.89262 28.0313 2.92721V10.0625C28.0323 11.0153 28.4113 11.9288 29.085 12.6025C29.7588 13.2762 30.6722 13.6552 31.625 13.6563H35.9375V12.2188H31.625C31.0533 12.2181 30.5053 11.9907 30.101 11.5865C29.6968 11.1823 29.4694 10.6342 29.4688 10.0625V3.89146L38.181 12.6037C38.3818 12.8035 38.5411 13.0411 38.6495 13.3028C38.7579 13.5645 38.8133 13.8451 38.8125 14.1284V40.9688C38.8118 41.5404 38.5845 42.0885 38.1802 42.4927C37.776 42.897 37.2279 43.1244 36.6563 43.125H9.34375C8.77208 43.1244 8.22401 42.897 7.81977 42.4927C7.41554 42.0885 7.18815 41.5404 7.1875 40.9688V5.03126Z" fill="#636363"/>
<path d="M10.35 13.5125L13.225 15.6688C13.3494 15.7621 13.5007 15.8125 13.6562 15.8125H16.5312C16.6868 15.8125 16.8381 15.7621 16.9625 15.6688L19.8375 13.5125C19.9268 13.4456 19.9992 13.3588 20.0491 13.259C20.099 13.1592 20.125 13.0491 20.125 12.9375V8.62502C20.125 8.5067 20.0958 8.3902 20.04 8.28588C19.9841 8.18155 19.9034 8.09263 19.8049 8.027L15.4924 5.152C15.3744 5.07327 15.2357 5.03125 15.0938 5.03125C14.9518 5.03125 14.8131 5.07327 14.6951 5.152L10.3826 8.027C10.2841 8.09263 10.2034 8.18155 10.1475 8.28588C10.0917 8.3902 10.0625 8.5067 10.0625 8.62502V12.9375C10.0625 13.0491 10.0885 13.1592 10.1384 13.259C10.1883 13.3588 10.2607 13.4456 10.35 13.5125ZM16.2916 14.375H13.8959L11.5 12.5781V9.968L14.6951 12.098C14.8131 12.1768 14.9519 12.2188 15.0938 12.2188C15.2356 12.2188 15.3744 12.1768 15.4924 12.098L18.6875 9.968V12.5781L16.2916 14.375ZM15.0938 6.61385L18.1105 8.62502L15.0938 10.6362L12.077 8.62502L15.0938 6.61385Z" fill="#636363"/>
</svg>
