<svg width="499" height="74" viewBox="0 0 499 74" fill="none" xmlns="http://www.w3.org/2000/svg">
<path d="M436.33 38.59C436.33 58.11 420.51 73.93 400.99 73.93C381.47 73.93 365.65 58.11 365.65 38.59C365.65 19.07 381.47 3.25 400.99 3.25C420.51 3.26 436.33 19.08 436.33 38.59Z" fill="#FF5D02"/>
<path d="M302.461 1.27997V0.47998H344.071V11.02H343.321C343.131 8.84996 342.341 6.91996 340.941 5.20996C339.541 3.49996 337.151 2.63998 333.761 2.63998H317.101V34.04H332.631C335.581 34.04 337.591 33.44 338.651 32.23C339.721 31.02 340.411 29.35 340.721 27.22H341.471V42.94H340.721C340.531 40.96 339.881 39.34 338.771 38.07C337.661 36.8 335.611 36.16 332.631 36.16H317.101V61.44C317.101 63.73 317.761 65.57 319.081 66.97C320.401 68.37 321.981 69.07 323.831 69.07H324.821V69.82H302.461V69.07H303.401C305.281 69.07 306.841 68.36 308.081 66.95C309.321 65.54 309.941 63.7 309.941 61.44V8.99997C309.941 6.01997 309.261 3.98996 307.921 2.89996C306.571 1.81996 305.061 1.27997 303.401 1.27997H302.461Z" fill="black"/>
<path d="M420.38 36.48C420.38 27.53 418.68 20.52 415.3 15.47C411.91 10.41 407.6 7.03 403.17 5.31C398.74 3.59 394.57 2.73001 390.66 2.73001C387.63 2.73001 384.48 3.2 381.23 4.12C377.97 5.05 374.8 6.74999 371.72 9.20999C368.64 11.68 365.71 15.15 363.72 19.62C361.73 24.1 360.74 29.62 360.74 36.2C360.74 41.99 361.56 47.03 363.21 51.34C364.85 55.65 367.52 59.17 370.4 61.89C373.28 64.62 376.46 66.58 379.93 67.78C383.4 68.98 387.01 69.58 390.76 69.58C394.12 69.58 397.51 69.03 400.95 67.91C404.39 66.8 407.53 64.99 410.38 62.47C413.23 59.96 415.94 56.55 417.72 52.24C419.49 47.95 420.38 42.69 420.38 36.48ZM428.59 36.29C428.59 42.59 426.92 48.46 423.58 53.88C420.24 59.3 415.69 63.62 409.92 66.83C404.15 70.04 397.76 71.65 390.76 71.65C383.72 71.65 377.27 70.04 371.4 66.83C365.53 63.62 360.91 59.29 357.54 53.83C354.17 48.38 352.48 42.44 352.48 36.01C352.48 31.08 353.48 26.44 355.49 22.1C357.49 17.76 360.3 13.98 363.9 10.75C367.5 7.52 371.61 5.02001 376.22 3.26001C380.83 1.49001 385.65 0.609985 390.67 0.609985C395.59 0.609985 400.32 1.45999 404.85 3.14999C409.38 4.83999 413.45 7.28001 417.05 10.48C420.65 13.68 423.48 17.47 425.53 21.85C427.58 26.23 428.59 31.06 428.59 36.29Z" fill="black"/>
<path d="M453.55 34.13H457.5C461.64 34.13 465.04 33.53 467.69 32.34C470.34 31.15 472.26 29.45 473.46 27.23C474.65 25.02 475.25 22.31 475.25 19.11C475.25 16.44 474.72 13.83 473.65 11.27C472.58 8.70999 470.77 6.56001 468.21 4.82001C465.65 3.08001 462.21 2.20999 457.88 2.20999C456.12 2.20999 454.68 2.35 453.55 2.63V34.13ZM439.94 1.37H439V0.380005H463.01C466.87 0.380005 470.14 0.980013 472.82 2.17001C475.5 3.36001 477.59 4.87999 479.08 6.70999C480.57 8.54999 481.64 10.48 482.28 12.52C482.92 14.56 483.25 16.57 483.25 18.55C483.25 21.06 482.72 23.47 481.67 25.78C480.62 28.09 479 30.07 476.82 31.73C474.64 33.39 471.92 34.52 468.65 35.12V35.31C472.79 37.32 476.62 41.3 480.14 47.27L486.4 57.86C489.22 62.6 491.49 65.6 493.2 66.85C494.91 68.11 496.6 68.81 498.26 68.97V69.72H485.64C485.11 69.03 484.6 68.36 484.13 67.72C483.66 67.08 483.16 66.4 482.62 65.67C482.31 65.2 481.84 64.49 481.23 63.53C480.62 62.57 480.25 62.03 480.12 61.91L471.83 48.21C470.17 45.42 468.47 43.15 466.72 41.41C464.98 39.67 463.35 38.42 461.85 37.67C460.34 36.92 458.99 36.45 457.78 36.26C456.57 36.07 455.15 35.98 453.52 35.98V61.35C453.52 66.28 456.03 68.82 461.05 68.98V69.73H439V68.98C440.38 68.92 441.6 68.66 442.67 68.2C443.74 67.74 444.62 66.96 445.33 65.85C446.04 64.74 446.39 63.24 446.39 61.36V8.89999C446.39 6.13999 445.72 4.19 444.37 3.06C443.02 1.93 441.55 1.37 439.94 1.37Z" fill="black"/>
<path d="M402.569 12.45C402.569 12.82 402.409 13.16 402.169 13.41C401.919 13.66 401.579 13.81 401.209 13.81H399.159V15.86C399.159 16.61 398.549 17.22 397.799 17.22C397.049 17.22 396.439 16.61 396.439 15.86V13.81H394.389C393.639 13.81 393.029 13.2 393.029 12.45C393.029 11.7 393.639 11.09 394.389 11.09H396.439V9.04001C396.439 8.29001 397.049 7.67999 397.799 7.67999C398.179 7.67999 398.519 7.82999 398.759 8.07999C399.009 8.32999 399.159 8.67001 399.159 9.04001V11.09H401.209C401.949 11.09 402.569 11.7 402.569 12.45Z" fill="white"/>
<path d="M227.829 3.17999C230.139 3.17999 231.749 3.94001 232.679 5.45001C233.609 6.97001 234.069 8.75 234.069 10.81V61.25C234.069 63.86 233.389 65.73 232.019 66.89C230.649 68.04 229.259 68.62 227.829 68.62H226.919V69.35H266.909L269.229 58.85H268.589C267.979 60.61 267.229 62.11 266.329 63.35C265.429 64.59 264.209 65.56 262.659 66.26C261.109 66.96 259.139 67.3 256.739 67.3H246.769C244.279 67.3 242.689 66.65 242.009 65.35C241.329 64.05 240.989 62.5 240.989 60.71V36.94H253.879C255.059 36.94 256.199 37.03 257.299 37.21C257.879 37.21 258.539 37.36 259.279 37.66C260.019 37.96 260.769 38.58 261.529 39.5C262.289 40.42 262.809 41.75 263.079 43.48H263.759V28.3H263.079C262.809 31.12 261.709 32.92 259.799 33.71C257.889 34.5 255.719 34.89 253.289 34.89H240.989V4.48999H254.969C262.499 4.48999 266.259 7.31 266.259 12.94H266.899V2.39999H226.909V3.17001H227.829V3.17999ZM218.289 1.39999H217.559C217.349 2.30999 217.039 2.94001 216.649 3.29001C216.249 3.64001 215.469 3.81 214.279 3.81C213.639 3.81 212.869 3.72001 211.959 3.54001L207.219 2.22C202.729 1.04 198.489 0.450012 194.509 0.450012C188.069 0.450012 182.109 2.08 176.609 5.34C171.119 8.6 166.759 13.02 163.539 18.61C160.319 24.2 158.709 30.25 158.709 36.76C158.709 41.09 159.479 45.3 161.029 49.39C162.579 53.48 164.849 57.16 167.859 60.43C170.869 63.7 174.549 66.3 178.899 68.22C183.259 70.14 188.079 71.11 193.359 71.11C198.369 71.11 202.549 70.38 205.909 68.93C209.259 67.48 212.959 65.19 216.999 62.07V59.48C213.719 62.69 210.049 64.99 205.979 66.36C201.909 67.74 198.179 68.43 194.779 68.43C190.709 68.43 187.009 67.67 183.669 66.16C180.329 64.64 177.389 62.41 174.859 59.46C172.319 56.51 170.399 53.02 169.079 49.01C167.759 45 167.099 40.64 167.099 35.94C167.099 31.09 167.779 26.6 169.149 22.47C170.519 18.33 172.429 14.79 174.889 11.84C177.349 8.89 180.269 6.60001 183.659 4.98001C187.039 3.36001 190.669 2.54999 194.519 2.54999C197.339 2.54999 200.379 3.07 203.629 4.12C206.879 5.17 209.749 6.82001 212.259 9.10001C214.769 11.37 216.309 14.14 216.879 17.42H217.649L218.289 1.39999ZM121.039 7.89999H121.219L132.149 39.67H110.789L121.039 7.89999ZM121.129 1.59L102.179 59.21C101.179 62.27 99.9994 64.55 98.6494 66.05C97.2994 67.55 95.4994 68.41 93.2494 68.62V69.35H109.009V68.62C107.279 68.62 105.939 68.31 104.999 67.69C104.059 67.07 103.589 65.82 103.589 63.94C103.589 62.58 103.949 60.77 104.679 58.53L110.009 42.08H133.239L139.209 59.85C139.209 59.97 139.269 60.15 139.389 60.4C139.969 62.13 140.259 63.51 140.259 64.54C140.259 66.42 139.649 67.57 138.439 67.99C137.219 68.42 135.489 68.63 133.249 68.63V69.36H155.159V68.63C153.819 68.51 152.719 68.27 151.859 67.93C150.999 67.58 150.089 66.74 149.149 65.41C148.209 64.08 147.209 61.93 146.139 58.96L126.059 1.60999H121.129V1.59ZM69.2294 4.17999C74.6294 4.17999 78.6594 5.78 81.3194 8.97C83.9794 12.17 85.3094 16.25 85.3094 21.22C85.3094 27.25 83.7994 31.38 80.7794 33.6C77.7594 35.83 74.0794 36.94 69.7394 36.94C67.4594 36.94 65.1594 36.73 62.8194 36.3V4.76001C64.9994 4.37001 67.1394 4.17999 69.2294 4.17999ZM49.6494 3.17999C49.9494 3.23999 50.5094 3.38 51.3094 3.59C52.1094 3.8 52.8394 4.13001 53.4994 4.57001C54.1594 5.01001 54.7194 5.73999 55.2094 6.76999C55.6994 7.79999 55.9394 9.09 55.9394 10.63V61.25C55.9394 63.83 55.2594 65.68 53.9094 66.82C52.5594 67.96 50.8394 68.55 48.7394 68.61V69.34H70.0994V68.61C65.2394 68.46 62.8094 66 62.8094 61.25V38.16C66.3594 38.52 68.7594 38.71 70.0094 38.71C73.9294 38.71 77.3894 38.21 80.3894 37.21C83.3994 36.21 85.8194 34.87 87.6794 33.19C89.5294 31.51 90.8894 29.58 91.7594 27.42C92.6194 25.25 93.0594 23 93.0594 20.67C93.0594 18.28 92.5994 16 91.6694 13.83C90.7394 11.67 89.3494 9.71999 87.4794 7.98999C85.6094 6.25999 83.2694 4.89999 80.4694 3.89999C77.6594 2.89999 74.4194 2.39999 70.7494 2.39999H48.7494V3.17001H49.6494V3.17999ZM35.5294 0.950012H34.7994C34.4394 2.31001 33.7494 3 32.7494 3C31.9294 3 31.2794 2.88001 30.7894 2.64001C27.6894 1.64001 24.6694 1.14001 21.7294 1.14001C17.8394 1.14001 14.3694 2.01 11.2994 3.75C8.22937 5.49 5.85938 7.79999 4.19938 10.68C2.52938 13.56 1.68937 16.57 1.68937 19.72C1.68937 22.45 2.15937 24.86 3.09937 26.97C4.03937 29.08 5.30938 30.9 6.89938 32.45C8.48938 33.99 10.0694 35.25 11.6094 36.22C13.1594 37.19 15.5394 38.55 18.7594 40.31C23.4394 42.79 26.9194 45.23 29.2094 47.6C31.4994 49.98 32.6494 53.05 32.6494 56.8C32.6494 58.62 32.2594 60.44 31.4694 62.25C30.6794 64.07 29.2594 65.61 27.2094 66.89C25.1594 68.16 22.4394 68.8 19.0394 68.8C14.5194 68.8 10.6794 67.54 7.51937 65.03C4.35937 62.52 2.23937 58.8 1.13937 53.9H0.359375V70.67H1.13937C1.46937 69.15 1.73937 68.17 1.93937 67.72C2.13937 67.27 2.55937 67.04 3.18937 67.04C3.51937 67.04 4.14938 67.19 5.05938 67.5C7.24938 68.56 9.39937 69.39 11.5294 69.98C13.6494 70.57 16.0994 70.87 18.8594 70.87C23.2594 70.87 26.9494 70.02 29.9294 68.33C32.9094 66.63 35.1294 64.46 36.5994 61.81C38.0694 59.16 38.8094 56.41 38.8094 53.56C38.8094 48.89 37.4394 45.22 34.7094 42.54C31.9794 39.86 28.1494 37.17 23.2294 34.47C20.2894 32.83 17.9494 31.48 16.2194 30.4C14.4894 29.32 12.9894 28.17 11.7094 26.92C10.4294 25.67 9.46937 24.25 8.81937 22.62C8.16937 21 7.83937 19.14 7.83937 17.05C7.83937 14.35 8.38937 11.96 9.47937 9.87C10.5694 7.78 12.1194 6.13001 14.1294 4.92001C16.1294 3.71001 18.4294 3.10001 21.0094 3.10001C24.9594 3.10001 28.1394 4.32001 30.5494 6.76001C32.9594 9.20001 34.3794 12.04 34.8094 15.28H35.5394V0.950012H35.5294Z" fill="white" stroke="black" stroke-width="0.5" stroke-miterlimit="10"/>
</svg>
