<svg width="46" height="46" viewBox="0 0 46 46" fill="none" xmlns="http://www.w3.org/2000/svg">
<path d="M40.25 19.1665C40.25 32.5832 23 44.0832 23 44.0832C23 44.0832 5.75 32.5832 5.75 19.1665C5.75 14.5915 7.56741 10.2039 10.8024 6.96891C14.0374 3.73391 18.425 1.9165 23 1.9165C27.575 1.9165 31.9626 3.73391 35.1976 6.96891C38.4326 10.2039 40.25 14.5915 40.25 19.1665Z" stroke="#636363" stroke-width="2" stroke-linecap="round" stroke-linejoin="round"/>
<path d="M23 23.2129C26.1756 23.2129 28.75 20.6385 28.75 17.4629C28.75 14.2873 26.1756 11.7129 23 11.7129C19.8244 11.7129 17.25 14.2873 17.25 17.4629C17.25 20.6385 19.8244 23.2129 23 23.2129Z" stroke="#636363" stroke-width="1.5" stroke-linecap="round" stroke-linejoin="round"/>
</svg>
