<svg width="46" height="46" viewBox="0 0 46 46" fill="none" xmlns="http://www.w3.org/2000/svg">
<g clip-path="url(#clip0)">
<path d="M43.8062 26.9436H43.1178V20.743C43.1178 19.7614 42.6292 18.8922 41.8831 18.3641V17.5199C41.8831 16.2952 40.8868 15.2989 39.6622 15.2989H39.1482L41.1147 12.4131C41.7739 11.4459 41.5233 10.1226 40.556 9.46331L27.2114 0.369325C26.7429 0.0499303 26.1781 -0.0679448 25.6207 0.0378013C25.0636 0.143368 24.5809 0.459528 24.2616 0.928153L12.7435 17.8298H9.53835L10.3116 10.0017C10.3204 9.91352 10.3777 9.83706 10.4576 9.80696C11.4539 9.43133 12.3173 8.72983 12.8887 7.83175C12.9337 7.76104 13.0186 7.72061 13.1065 7.72951L18.1337 8.22616C18.4942 8.26111 18.8148 7.99859 18.8504 7.63831C18.886 7.27804 18.6228 6.95721 18.2625 6.92163L13.2353 6.42497C12.6518 6.36783 12.0953 6.63674 11.7826 7.128C11.3625 7.78835 10.7277 8.30406 9.99521 8.58024C9.44384 8.78813 9.06523 9.28335 9.00702 9.87282L8.22106 17.8297H7.38525L8.6082 5.44891C8.65222 5.00329 9.04996 4.6759 9.49613 4.72055L19.6551 5.7241C20.0154 5.75887 20.3362 5.49653 20.3718 5.13625C20.4074 4.77598 20.1442 4.45515 19.784 4.41957L9.62496 3.41602C8.46023 3.30111 7.41867 4.15507 7.30358 5.31999L6.31781 15.2989H4.63908C3.41451 15.2989 2.41814 16.2952 2.41814 17.5199V18.0958C1.4163 18.557 0.71875 19.5697 0.71875 20.743V43.0867C0.71875 44.6931 2.02562 46 3.63211 46H40.2045C41.8109 46 43.1178 44.6931 43.1178 43.0867V36.8862H43.8062C44.6187 36.8862 45.2797 36.2253 45.2797 35.4128V28.4171C45.2798 27.6046 44.6187 26.9436 43.8062 26.9436ZM39.6622 16.6099C40.164 16.6098 40.5722 17.0181 40.5722 17.52V17.8539C40.4516 17.8386 40.3292 17.8299 40.2045 17.8299H37.4234L38.2547 16.6099H39.6622ZM25.3448 1.66631C25.467 1.48707 25.6516 1.36614 25.8648 1.32571C25.9157 1.3161 25.9668 1.31125 26.0176 1.31125C26.179 1.31125 26.3368 1.35958 26.4732 1.45248L39.8178 10.5465C40.1877 10.7987 40.2837 11.3048 40.0316 11.6748L35.8371 17.8296H34.8305L36.887 14.8121C37.2205 14.3227 37.248 13.6999 36.9585 13.1866C36.5738 12.5047 36.4178 11.7018 36.5193 10.9256C36.5948 10.3482 36.3407 9.7845 35.8563 9.45442L28.9385 4.74013C28.454 4.40996 27.8364 4.37968 27.3266 4.66116C26.6415 5.0394 25.8372 5.18791 25.0618 5.07938C24.4868 4.9987 23.9036 5.25835 23.5751 5.74036L15.3365 17.8297H14.3299L25.3448 1.66631ZM25.6335 12.7971C22.7791 12.7971 20.4359 15.0228 20.245 17.8297H16.9227L24.6582 6.47861C24.6582 6.47861 24.6582 6.47861 24.6582 6.47861C24.7022 6.41401 24.775 6.37556 24.8499 6.37556C24.8599 6.37556 24.8698 6.37628 24.8798 6.37763C25.9344 6.52515 27.0282 6.32336 27.9601 5.80883C28.0334 5.76822 28.1276 5.77406 28.2002 5.82347L35.118 10.5378C35.1904 10.5873 35.2303 10.6728 35.2195 10.7558C35.0814 11.8114 35.2936 12.9033 35.8167 13.8307C35.8587 13.9052 35.8536 14.0006 35.8038 14.0738L33.2443 17.8296H31.0222C30.8311 15.0228 28.4881 12.7971 25.6335 12.7971ZM29.7077 17.8298H21.5594C21.7471 15.7464 23.5021 14.1081 25.6335 14.1081C27.765 14.1081 29.5201 15.7464 29.7077 17.8298ZM3.72905 17.5199C3.72905 17.018 4.13722 16.6098 4.63908 16.6098H6.18835L6.06787 17.8297H3.72905V17.5199ZM2.02966 20.743C2.02966 19.8595 2.7485 19.1406 3.63211 19.1406H40.2045C41.0882 19.1406 41.8069 19.8595 41.8069 20.743V22.5618H2.02966V20.743ZM41.8069 43.0867C41.8069 43.9702 41.0882 44.6891 40.2045 44.6891H3.63211C2.7485 44.6891 2.02966 43.9702 2.02966 43.0867V41.2679H5.56429C5.92636 41.2679 6.2197 40.9745 6.2197 40.6125C6.2197 40.2505 5.92627 39.9571 5.56429 39.9571H2.02966V23.8727H41.8069V26.9436H35.5748H35.5747C33.6111 26.9436 31.9102 28.0882 31.1029 29.745C31.1002 29.7506 31.0972 29.756 31.0944 29.7615C31.0876 29.7756 31.0816 29.7903 31.075 29.8045C30.9788 30.0087 30.8953 30.2201 30.8273 30.4382C30.8271 30.4389 30.8269 30.4394 30.8267 30.44C30.6816 30.9062 30.6034 31.4015 30.6034 31.9149C30.6034 34.6561 32.8335 36.8862 35.5746 36.8862H35.5747H41.8068V39.9571H9.76125C9.39918 39.9571 9.10584 40.2505 9.10584 40.6125C9.10584 40.9745 9.39927 41.2679 9.76125 41.2679H41.8069V43.0867ZM43.9689 35.4127C43.9689 35.5024 43.896 35.5753 43.8062 35.5753H35.5749C34.1873 35.5753 32.9774 34.7992 32.3569 33.6582C32.3287 33.6064 32.3017 33.5537 32.2759 33.5005C32.2244 33.3938 32.178 33.2843 32.1369 33.1722C31.993 32.7799 31.9145 32.3564 31.9145 31.9149C31.9145 31.4734 31.9931 31.0499 32.1369 30.6576C32.1781 30.5456 32.2245 30.4361 32.2759 30.3293C32.3017 30.2761 32.3287 30.2234 32.3569 30.1716C32.9774 29.0307 34.1873 28.2545 35.5749 28.2545H43.8062C43.8959 28.2545 43.9689 28.3274 43.9689 28.4171V35.4127Z" fill="#636363"/>
<path d="M35.7297 29.2554C34.2633 29.2554 33.0703 30.4484 33.0703 31.9147C33.0703 33.3811 34.2633 34.574 35.7297 34.574C37.1961 34.574 38.3891 33.3811 38.3891 31.9147C38.3891 30.4484 37.1961 29.2554 35.7297 29.2554ZM35.7297 33.2631C34.9861 33.2631 34.3812 32.6582 34.3812 31.9147C34.3812 31.1713 34.9861 30.5663 35.7297 30.5663C36.4732 30.5663 37.0782 31.1712 37.0782 31.9147C37.0782 32.6583 36.4732 33.2631 35.7297 33.2631Z" fill="#636363"/>
</g>
<defs>
<clipPath id="clip0">
<rect width="46" height="46" fill="white"/>
</clipPath>
</defs>
</svg>
